<?xml version="1.0" encoding="utf-8"?>
<!-- Generator: Adobe Illustrator 18.0.0, SVG Export Plug-In . SVG Version: 6.00 Build 0)  -->
<!DOCTYPE svg PUBLIC "-//W3C//DTD SVG 1.1//EN" "http://www.w3.org/Graphics/SVG/1.1/DTD/svg11.dtd">
<svg version="1.1" id="Layer_1" xmlns="http://www.w3.org/2000/svg" xmlns:xlink="http://www.w3.org/1999/xlink" x="0px" y="0px"
	 viewBox="0 0 454.7 140.3" enable-background="new 0 0 454.7 140.3" xml:space="preserve">
<g>
	<path fill="#3F50B0" d="M4.4,105C1.5,116.2,0,128.3,0,140.3h35c0-12,1.5-24.1,5.4-35.3C50.9,74.9,73.7,51.5,103.7,41v64.1v35.3h35
		v-35.3V35V0c-11,0-23.4,1.5-34.6,4.4C55,17.1,17.1,55.9,4.4,105z"/>
	<path fill="#3F50B0" d="M162.2,105c-2.9,11.2-4.4,23.3-4.4,35.3h35c0-12,2.1-24.1,6-35.3c10.5-30.1,34-53.5,63.2-64.1
		c11.2-3.9,23.7-6,34.7-6V0c-11,0-23.5,1.5-34.7,4.4C212.9,17.1,174.9,55.9,162.2,105z"/>
	<path fill="#3F50B0" d="M419.9,41.1c11.2-3.9,22.8-6.1,34.8-6.1V0c-12,0-23.6,1.5-34.8,4.4C370.8,17.1,332.4,55.9,319.8,105
		c-2.9,11.2-4.2,23.3-4.2,35.3h35h69.7h34.4v-35h-34.4h-63.8C367.1,75.3,389.7,51.6,419.9,41.1z"/>
</g>
</svg>
