<?xml version="1.0" encoding="utf-8"?>
<!-- Generator: Adobe Illustrator 18.0.0, SVG Export Plug-In . SVG Version: 6.00 Build 0)  -->
<!DOCTYPE svg PUBLIC "-//W3C//DTD SVG 1.1//EN" "http://www.w3.org/Graphics/SVG/1.1/DTD/svg11.dtd">
<svg version="1.1" id="Layer_1" xmlns="http://www.w3.org/2000/svg" xmlns:xlink="http://www.w3.org/1999/xlink" x="0px" y="0px"
	 viewBox="0 0 852 852" enable-background="new 0 0 852 852" xml:space="preserve">
<g>
	<g>
		<path fill="#FFFFFF" d="M361.9,733.8h-9.5l-2.3,7.4h-3.6l9.2-28.4h3l9,28.4h-3.6L361.9,733.8z M353.4,730.7h7.6l-3.8-12.3
			L353.4,730.7z"/>
		<path fill="#FFFFFF" d="M385.7,729.6H380v11.6h-3.6v-28.4h8.3c1.3,0,2.6,0.2,3.8,0.6s2.2,0.9,3.1,1.6s1.6,1.6,2.1,2.6
			c0.5,1.1,0.8,2.3,0.8,3.7c0,0.9-0.1,1.8-0.4,2.5c-0.3,0.8-0.6,1.5-1.1,2.1s-1,1.2-1.7,1.7c-0.7,0.5-1.4,0.9-2.1,1.2l6,12.1l0,0.2
			h-3.8L385.7,729.6z M380,726.6h4.8c0.8,0,1.6-0.1,2.3-0.4c0.7-0.2,1.3-0.6,1.9-1c0.5-0.5,1-1,1.3-1.7c0.3-0.7,0.5-1.4,0.5-2.3
			c0-0.9-0.1-1.7-0.4-2.4c-0.3-0.7-0.7-1.3-1.3-1.7c-0.5-0.5-1.2-0.8-1.9-1c-0.7-0.2-1.5-0.4-2.4-0.4H380V726.6z"/>
		<path fill="#FFFFFF" d="M422.7,732.7c-0.2,1.3-0.5,2.5-1,3.6c-0.5,1.1-1.2,2-2,2.8c-0.8,0.8-1.8,1.4-2.9,1.8
			c-1.1,0.4-2.4,0.7-3.7,0.7c-1.2,0-2.2-0.2-3.2-0.5s-1.8-0.8-2.6-1.4c-0.7-0.6-1.4-1.3-1.9-2.1c-0.5-0.8-1-1.7-1.3-2.6
			c-0.4-0.9-0.6-1.9-0.8-2.9c-0.2-1-0.3-2.1-0.3-3.1v-4c0-1.1,0.1-2.1,0.3-3.1c0.2-1,0.4-2,0.8-2.9c0.4-0.9,0.8-1.8,1.3-2.6
			c0.5-0.8,1.2-1.5,1.9-2.1c0.7-0.6,1.6-1,2.5-1.4c1-0.3,2-0.5,3.2-0.5c1.4,0,2.7,0.2,3.8,0.7c1.1,0.4,2.1,1.1,2.9,1.9
			c0.8,0.8,1.5,1.8,1.9,2.9c0.5,1.1,0.8,2.4,1,3.7h-3.6c-0.1-0.9-0.3-1.7-0.6-2.4c-0.3-0.7-0.7-1.4-1.2-2c-0.5-0.6-1.1-1-1.8-1.3
			c-0.7-0.3-1.5-0.5-2.5-0.5c-0.9,0-1.6,0.1-2.3,0.4c-0.7,0.3-1.2,0.7-1.7,1.1c-0.5,0.5-0.9,1-1.2,1.7c-0.3,0.6-0.6,1.3-0.8,2
			c-0.2,0.7-0.3,1.4-0.4,2.2c-0.1,0.7-0.1,1.5-0.1,2.2v4c0,0.7,0,1.4,0.1,2.2c0.1,0.7,0.2,1.5,0.4,2.2s0.4,1.4,0.8,2
			c0.3,0.6,0.7,1.2,1.2,1.7c0.5,0.5,1,0.9,1.7,1.2c0.7,0.3,1.4,0.4,2.3,0.4c1,0,1.8-0.1,2.5-0.4c0.7-0.3,1.3-0.7,1.8-1.3
			c0.5-0.5,0.9-1.2,1.2-1.9c0.3-0.7,0.5-1.5,0.6-2.4H422.7z"/>
		<path fill="#FFFFFF" d="M478.2,712.8l0,19.3c0,1.3-0.3,2.6-0.7,3.7c-0.5,1.2-1.1,2.2-1.9,3c-0.8,0.9-1.8,1.5-2.9,2.1
			s-2.4,0.8-3.7,0.8c-1.4,0-2.6-0.2-3.8-0.7c-1.1-0.5-2.1-1.2-2.9-2c-0.8-0.9-1.4-1.9-1.9-3c-0.5-1.2-0.7-2.4-0.7-3.7l0-19.3h3.4
			l0.1,19.3c0,0.8,0.1,1.7,0.4,2.4s0.6,1.5,1.1,2.1c0.5,0.6,1.1,1.1,1.8,1.4c0.7,0.4,1.5,0.5,2.5,0.5c0.9,0,1.7-0.2,2.4-0.5
			c0.7-0.4,1.3-0.8,1.8-1.4c0.5-0.6,0.8-1.3,1.1-2.1c0.2-0.8,0.4-1.6,0.4-2.4l0.1-19.3H478.2z"/>
		<path fill="#FFFFFF" d="M488.3,712.8h17.2v3.1h-6.8v22.2h6.8v3.1h-17.2v-3.1h6.7v-22.2h-6.7V712.8z"/>
	</g>
</g>
<g>
	<path fill="#FFFFFF" d="M203.1,460.7c-2.9,11.2-4.4,23.3-4.4,35.3h35c0-12,1.4-24.1,5.2-35.3c10.5-30.1,33.1-53.5,63.1-64.1v64.1
		V496h35v-35.3v-70.1v-35c-11,0-23.2,1.5-34.4,4.4C253.5,372.8,215.7,411.6,203.1,460.7z"/>
	<path fill="#FFFFFF" d="M360.9,460.7c-2.9,11.2-4.4,23.3-4.4,35.3h35c0-12,2.1-24.1,6-35.3c10.5-30.1,33.8-53.5,63.1-64.1
		c11.2-3.9,23.5-6,34.5-6v-35c-11,0-23.3,1.5-34.5,4.4C411.4,372.8,373.5,411.6,360.9,460.7z"/>
	<path fill="#FFFFFF" d="M618.3,396.8c11.2-3.9,22.7-6.1,34.7-6.1v-35c-12,0-23.5,1.5-34.7,4.4c-49.1,12.7-87.3,51.5-100,100.6
		c-2.9,11.2-4.1,23.3-4.1,35.3h35H619h34v-35h-34h-63.8C565.8,431,588.2,407.3,618.3,396.8z"/>
</g>
<path fill="#9FA8DA" d="M426,822.7c-53.6,0-105.5-10.5-154.4-31.2c-47.2-20-89.7-48.6-126.1-85c-36.4-36.4-65-78.9-85-126.1
	C39.8,531.5,29.3,479.6,29.3,426s10.5-105.5,31.2-154.4c20-47.2,48.6-89.7,85-126.1c36.4-36.4,78.9-65,126.1-85
	C320.5,39.8,372.4,29.3,426,29.3s105.5,10.5,154.4,31.2c47.2,20,89.7,48.6,126.1,85c36.4,36.4,65,78.9,85,126.1
	c20.7,48.9,31.2,100.9,31.2,154.4s-10.5,105.5-31.2,154.4c-20,47.2-48.6,89.7-85,126.1s-78.9,65-126.1,85
	C531.5,812.2,479.6,822.7,426,822.7z M426,31.3C208.4,31.3,31.3,208.4,31.3,426c0,217.6,177.1,394.7,394.7,394.7
	c217.6,0,394.7-177.1,394.7-394.7C820.7,208.4,643.6,31.3,426,31.3z"/>
<path fill="#9FA8DA" d="M426,852c-57.5,0-113.3-11.3-165.8-33.5c-50.7-21.5-96.3-52.2-135.4-91.3s-69.8-84.7-91.3-135.4
	C11.3,539.3,0,483.5,0,426c0-57.5,11.3-113.3,33.5-165.8c21.5-50.7,52.2-96.3,91.3-135.4s84.7-69.8,135.4-91.3
	C312.7,11.3,368.5,0,426,0c57.5,0,113.3,11.3,165.8,33.5c50.7,21.5,96.3,52.2,135.4,91.3s69.8,84.7,91.3,135.4
	C840.7,312.7,852,368.5,852,426c0,57.5-11.3,113.3-33.5,165.8c-21.5,50.7-52.2,96.3-91.3,135.4s-84.7,69.8-135.4,91.3
	C539.3,840.7,483.5,852,426,852z M426,2C192.2,2,2,192.2,2,426c0,233.8,190.2,424,424,424c233.8,0,424-190.2,424-424
	C850,192.2,659.8,2,426,2z"/>
</svg>
